<svg width="32" height="32" viewBox="0 0 32 32" fill="none" xmlns="http://www.w3.org/2000/svg">
<path d="M26.6667 16V24C26.6667 25.8856 26.6667 26.8284 26.0809 27.4142C25.4951 28 24.5523 28 22.6667 28H8.66671C8.35716 28 8.20239 28 8.07191 27.9886C6.62157 27.8617 5.47168 26.7118 5.34479 25.2615C5.33337 25.131 5.33337 24.9762 5.33337 24.6667V24.6667C5.33337 24.3571 5.33337 24.2024 5.34479 24.0719C5.47168 22.6215 6.62157 21.4716 8.07191 21.3447C8.20239 21.3333 8.35716 21.3333 8.66671 21.3333H22.6667C24.5523 21.3333 25.4951 21.3333 26.0809 20.7475C26.6667 20.1618 26.6667 19.219 26.6667 17.3333V8C26.6667 6.11438 26.6667 5.17157 26.0809 4.58579C25.4951 4 24.5523 4 22.6667 4H9.33338C7.44776 4 6.50495 4 5.91916 4.58579C5.33337 5.17157 5.33337 6.11438 5.33337 8V24.6667" stroke="#C6C6C6" stroke-width="2"/>
<path d="M12 13.3333L13.9596 15.2929C14.3501 15.6834 14.9832 15.6834 15.3738 15.2929L20 10.6666" stroke="#C6C6C6" stroke-width="2" stroke-linecap="round"/>
</svg>
