<svg width="32" height="32" viewBox="0 0 32 32" fill="none" xmlns="http://www.w3.org/2000/svg">
<path d="M27.48 25.5866C28.3156 24.4665 28.889 23.1731 29.1579 21.8018C29.4269 20.4305 29.3844 19.0164 29.0338 17.6637C28.6831 16.3109 28.0332 15.0542 27.132 13.9863C26.2307 12.9183 25.1012 12.0664 23.8267 11.4933C23.549 9.89608 22.911 8.38317 21.9611 7.06951C21.0111 5.75584 19.7743 4.67599 18.3444 3.91199C16.9146 3.14799 15.3294 2.71995 13.7094 2.6604C12.0893 2.60084 10.477 2.91134 8.99497 3.5683C7.5129 4.22525 6.20008 5.21138 5.15625 6.45175C4.11242 7.69212 3.36504 9.15411 2.97091 10.7266C2.57678 12.2991 2.54627 13.9408 2.88169 15.5268C3.21711 17.1129 3.90964 18.6016 4.90665 19.8799L3.05332 21.72C2.86831 21.9074 2.74298 22.1455 2.69315 22.4042C2.64332 22.6629 2.67122 22.9305 2.77332 23.1733C2.87335 23.4168 3.04321 23.6252 3.26151 23.7723C3.4798 23.9194 3.73675 23.9986 3.99999 24H11.5867C12.3422 25.5928 13.5334 26.939 15.0223 27.8829C16.5113 28.8267 18.2371 29.3296 20 29.3333H28C28.2632 29.332 28.5202 29.2528 28.7385 29.1057C28.9568 28.9585 29.1266 28.7501 29.2267 28.5066C29.3288 28.2638 29.3567 27.9962 29.3068 27.7375C29.257 27.4789 29.1317 27.2408 28.9467 27.0533L27.48 25.5866ZM10.6667 20C10.6685 20.4464 10.7041 20.8922 10.7733 21.3333H7.21332L7.67999 20.8799C7.80496 20.756 7.90415 20.6085 7.97184 20.4461C8.03954 20.2836 8.07439 20.1093 8.07439 19.9333C8.07439 19.7573 8.03954 19.583 7.97184 19.4205C7.90415 19.258 7.80496 19.1106 7.67999 18.9866C6.93273 18.2476 6.34032 17.3669 5.93739 16.3962C5.53446 15.4256 5.3291 14.3843 5.33332 13.3333C5.33332 11.2116 6.17618 9.17672 7.67647 7.67643C9.17676 6.17614 11.2116 5.33328 13.3333 5.33328C14.9889 5.32333 16.606 5.83246 17.9572 6.7891C19.3085 7.74574 20.326 9.10179 20.8667 10.6666C20.5733 10.6666 20.2933 10.6666 20 10.6666C17.5246 10.6666 15.1507 11.6499 13.4003 13.4003C11.65 15.1506 10.6667 17.5246 10.6667 20ZM24.72 26.6666L24.7867 26.7333H20C18.4578 26.7305 16.9642 26.1932 15.7737 25.2127C14.5833 24.2323 13.7696 22.8695 13.4712 21.3564C13.1728 19.8433 13.4083 18.2736 14.1374 16.9146C14.8666 15.5557 16.0443 14.4916 17.4701 13.9035C18.8958 13.3155 20.4813 13.24 21.9564 13.6899C23.4316 14.1397 24.7052 15.087 25.5602 16.3706C26.4152 17.654 26.7988 19.1943 26.6456 20.7289C26.4924 22.2635 25.8119 23.6975 24.72 24.7866C24.4688 25.0328 24.325 25.3683 24.32 25.72C24.3207 25.8964 24.3565 26.0709 24.4251 26.2334C24.4938 26.3959 24.594 26.5431 24.72 26.6666Z" fill="#C6C6C6"/>
</svg>
