<svg width="12" height="12" viewBox="0 0 12 12" fill="none" xmlns="http://www.w3.org/2000/svg">
<path d="M9.5 1H2.5C2.10218 1 1.72064 1.15804 1.43934 1.43934C1.15804 1.72064 1 2.10218 1 2.5V7.5C1 7.89782 1.15804 8.27936 1.43934 8.56066C1.72064 8.84196 2.10218 9 2.5 9H8.295L10.145 10.855C10.1917 10.9013 10.2471 10.938 10.308 10.9629C10.369 10.9878 10.4342 11.0004 10.5 11C10.5656 11.0017 10.6307 10.988 10.69 10.96C10.7813 10.9225 10.8595 10.8588 10.9146 10.7769C10.9698 10.6951 10.9995 10.5987 11 10.5V2.5C11 2.10218 10.842 1.72064 10.5607 1.43934C10.2794 1.15804 9.89782 1 9.5 1ZM10 9.295L8.855 8.145C8.80828 8.09866 8.75287 8.062 8.69195 8.03711C8.63103 8.01223 8.5658 7.99962 8.5 8H2.5C2.36739 8 2.24021 7.94732 2.14645 7.85355C2.05268 7.75979 2 7.63261 2 7.5V2.5C2 2.36739 2.05268 2.24021 2.14645 2.14645C2.24021 2.05268 2.36739 2 2.5 2H9.5C9.63261 2 9.75979 2.05268 9.85355 2.14645C9.94732 2.24021 10 2.36739 10 2.5V9.295Z" fill="#666666"/>
</svg>
