<svg width="48" height="48" viewBox="0 0 48 48" fill="none" xmlns="http://www.w3.org/2000/svg">
<path d="M24 20C23.2089 20 22.4355 20.2346 21.7777 20.6741C21.1199 21.1136 20.6072 21.7384 20.3045 22.4693C20.0017 23.2002 19.9225 24.0044 20.0769 24.7804C20.2312 25.5563 20.6122 26.269 21.1716 26.8284C21.731 27.3878 22.4437 27.7688 23.2196 27.9231C23.9956 28.0775 24.7998 27.9983 25.5307 27.6955C26.2616 27.3928 26.8864 26.8801 27.3259 26.2223C27.7654 25.5645 28 24.7911 28 24C28 22.9391 27.5786 21.9217 26.8284 21.1716C26.0783 20.4214 25.0609 20 24 20ZM10 20C9.20888 20 8.43552 20.2346 7.77772 20.6741C7.11992 21.1136 6.60723 21.7384 6.30448 22.4693C6.00173 23.2002 5.92252 24.0044 6.07686 24.7804C6.2312 25.5563 6.61216 26.269 7.17157 26.8284C7.73098 27.3878 8.44372 27.7688 9.21964 27.9231C9.99556 28.0775 10.7998 27.9983 11.5307 27.6955C12.2616 27.3928 12.8864 26.8801 13.3259 26.2223C13.7654 25.5645 14 24.7911 14 24C14 22.9391 13.5786 21.9217 12.8284 21.1716C12.0783 20.4214 11.0609 20 10 20ZM38 20C37.2089 20 36.4355 20.2346 35.7777 20.6741C35.1199 21.1136 34.6072 21.7384 34.3045 22.4693C34.0017 23.2002 33.9225 24.0044 34.0769 24.7804C34.2312 25.5563 34.6122 26.269 35.1716 26.8284C35.731 27.3878 36.4437 27.7688 37.2196 27.9231C37.9956 28.0775 38.7998 27.9983 39.5307 27.6955C40.2616 27.3928 40.8864 26.8801 41.3259 26.2223C41.7654 25.5645 42 24.7911 42 24C42 22.9391 41.5786 21.9217 40.8284 21.1716C40.0783 20.4214 39.0609 20 38 20Z" fill="black"/>
</svg>
