<svg width="16" height="16" viewBox="0 0 16 16" fill="none" xmlns="http://www.w3.org/2000/svg">
<g clip-path="url(#clip0_169_1163)">
<path d="M15.0683 6.66947C15.0405 6.51572 14.9596 6.37661 14.8397 6.27642C14.7198 6.17623 14.5686 6.12132 14.4123 6.12129H8.1334C8.04584 6.12126 7.95914 6.13849 7.87825 6.17199C7.79735 6.20548 7.72385 6.25459 7.66194 6.3165C7.60003 6.37841 7.55093 6.45191 7.51743 6.5328C7.48394 6.6137 7.46671 6.7004 7.46673 6.78795V9.36673C7.46671 9.45428 7.48394 9.54098 7.51743 9.62188C7.55093 9.70277 7.60003 9.77627 7.66194 9.83818C7.72385 9.90009 7.79735 9.9492 7.87825 9.98269C7.95914 10.0162 8.04584 10.0334 8.1334 10.0334H10.775C10.5868 10.3511 10.3287 10.6218 10.0204 10.8251C9.45702 11.1823 8.80033 11.3644 8.1334 11.3485C7.44171 11.3406 6.77012 11.1149 6.21405 10.7034C5.65799 10.292 5.24574 9.71577 5.0359 9.05663L5.03571 9.05553C4.8022 8.37112 4.8022 7.6286 5.03571 6.94419L5.03587 6.94309C5.24586 6.2841 5.65816 5.70802 6.21422 5.29672C6.77027 4.88541 7.4418 4.65978 8.1334 4.65189C8.51767 4.64307 8.89991 4.71024 9.25815 4.84957C9.61639 4.98889 9.94358 5.1976 10.2209 5.46373C10.3469 5.58411 10.515 5.65041 10.6892 5.64846C10.8634 5.64652 11.03 5.57648 11.1532 5.45332L13.0653 3.54121C13.1287 3.47794 13.1786 3.40256 13.2122 3.31955C13.2457 3.23655 13.2622 3.14763 13.2606 3.05812C13.2591 2.9686 13.2395 2.88033 13.203 2.79856C13.1665 2.71679 13.1139 2.64322 13.0484 2.58223C11.7178 1.33469 9.95725 0.6486 8.1334 0.666859C6.77335 0.662835 5.43923 1.03887 4.28148 1.75255C3.12373 2.46624 2.1884 3.48919 1.58096 4.70605L1.57998 4.70723C1.06499 5.7284 0.797808 6.85652 0.800063 8.00019C0.801685 9.14342 1.06867 10.2707 1.58001 11.2932L1.58099 11.2943C2.18843 12.5112 3.12376 13.5341 4.2815 14.2478C5.43925 14.9615 6.77336 15.3375 8.1334 15.3335C9.92363 15.3788 11.6635 14.738 12.9965 13.5422L12.997 13.5419L12.9975 13.5413L12.9977 13.5412L12.9977 13.5411C13.7203 12.846 14.2894 12.0075 14.6687 11.0794C15.048 10.1513 15.229 9.1541 15.2001 8.15189C15.2004 7.65481 15.1563 7.15869 15.0683 6.66947ZM8.1334 2.00019C9.38078 1.98805 10.5987 2.37922 11.6057 3.11543L10.6366 4.08419C9.9018 3.57556 9.02701 3.308 8.1334 3.31855C7.31754 3.32275 6.51755 3.54428 5.81575 3.96034C5.11395 4.37641 4.5357 4.97197 4.14052 5.68574L3.42772 5.13325L3.03772 4.8308C3.57423 3.9627 4.32437 3.24666 5.21649 2.7511C6.1086 2.25554 7.11289 1.997 8.1334 2.00019ZM2.45302 9.93574C2.02681 8.68057 2.02681 7.31982 2.45302 6.06465L3.64118 6.98587C3.48926 7.65334 3.48926 8.34641 3.64118 9.01387L2.45302 9.93574ZM8.1334 14.0002C7.11287 14.0034 6.10857 13.7448 5.21645 13.2492C4.32433 12.7536 3.57418 12.0376 3.03766 11.1695L3.28994 10.9738L4.14052 10.314C4.53553 11.028 5.11372 11.6237 5.81555 12.0399C6.51737 12.4561 7.31746 12.6777 8.1334 12.6818C8.89716 12.6908 9.65226 12.5193 10.3372 12.1813L11.465 13.0569C10.4731 13.6959 9.31307 14.0244 8.1334 14.0002ZM12.484 12.1597L12.362 12.065L11.4437 11.3522C11.9252 10.832 12.2488 10.1856 12.3769 9.48851C12.3948 9.39227 12.3912 9.29328 12.3666 9.19856C12.3419 9.10385 12.2966 9.01572 12.2341 8.94046C12.1715 8.8652 12.0931 8.80465 12.0045 8.76311C11.9158 8.72156 11.8191 8.70005 11.7213 8.70009H8.80006V7.45462H13.8326C13.8554 7.68509 13.8668 7.91816 13.8668 8.15189C13.9058 9.61111 13.4145 11.035 12.484 12.1597H12.484Z" fill="#01CB45"/>
</g>
<defs>
<clipPath id="clip0_169_1163">
<rect width="16" height="16" fill="white"/>
</clipPath>
</defs>
</svg>
