<svg width="47" height="40" viewBox="0 0 47 40" fill="none" xmlns="http://www.w3.org/2000/svg">
<path d="M46.6197 19.956C46.2543 17.3704 43.8655 15.5647 41.2729 15.93L31.6474 17.2861L37.9637 13.5693C40.212 12.2413 40.9638 9.34656 39.6429 7.09117C38.315 4.84281 35.4203 4.09101 33.165 5.41192L25.9774 9.64868L27.3053 6.63447C28.3592 4.24558 27.2702 1.44918 24.8814 0.402287C22.4925 -0.651634 19.6962 0.437418 18.6493 2.8263L11.5812 18.8951L8.84109 15.93C6.93003 13.8644 3.70511 13.7309 1.63948 15.642C-0.426151 17.5531 -0.559647 20.7781 1.35141 22.8438L11.9395 34.3104C12.3541 35.0482 12.8529 35.7508 13.4501 36.3972C17.6446 40.9431 24.7338 41.2241 29.2796 37.0295C30.2633 36.1232 31.0361 35.0763 31.6193 33.9521L36.8255 36.2426C39.2143 37.2965 42.0107 36.2075 43.0575 33.8186C44.1114 31.4297 43.0224 28.6333 40.6336 27.5864L37.1627 26.0617L42.5938 25.2959C45.1794 24.9305 46.985 22.5416 46.6197 19.949V19.956Z" fill="#FFC955"/>
<path d="M17.4074 24.4444C18.021 24.4444 18.5185 23.9469 18.5185 23.3333C18.5185 22.7196 18.021 22.2222 17.4074 22.2222C16.7937 22.2222 16.2963 22.7196 16.2963 23.3333C16.2963 23.9469 16.7937 24.4444 17.4074 24.4444Z" fill="white"/>
<path d="M23.7036 24.4444C24.1127 24.4444 24.7717 23.9469 24.7717 23.3333C24.7717 22.7196 24.1127 22.2222 23.7036 22.2222C23.2945 22.2222 22.742 22.7196 22.742 23.3333C22.742 23.9469 23.2945 24.4444 23.7036 24.4444Z" fill="white"/>
<path d="M26.686 28.1484C27.1159 28.1484 27.4526 28.5037 27.4025 28.8992C27.0084 31.822 24.3431 34.0744 21.1118 34.0744C17.8805 34.0744 15.2151 31.8153 14.8211 28.8992C14.7638 28.497 15.1077 28.1484 15.5376 28.1484H26.6788H26.686Z" fill="white"/>
</svg>
