<svg width="12" height="12" viewBox="0 0 12 12" fill="current" xmlns="http://www.w3.org/2000/svg">
<path d="M10.08 2.50008C9.55 1.96869 8.84742 1.64435 8.09919 1.58567C7.35095 1.52698 6.6064 1.73782 6.00002 2.18008C5.36384 1.7069 4.57201 1.49234 3.78398 1.5796C2.99594 1.66686 2.27024 2.04947 1.753 2.65038C1.23577 3.25128 0.965427 4.02584 0.996416 4.81809C1.02741 5.61034 1.35742 6.36142 1.92002 6.92008L5.02502 10.0301C5.28502 10.286 5.63521 10.4294 6.00002 10.4294C6.36482 10.4294 6.71501 10.286 6.97502 10.0301L10.08 6.92008C10.6638 6.33272 10.9915 5.53822 10.9915 4.71008C10.9915 3.88195 10.6638 3.08745 10.08 2.50008ZM9.37502 6.23008L6.27002 9.33508C6.23468 9.37076 6.19263 9.39908 6.14629 9.41841C6.09994 9.43774 6.05023 9.44769 6.00002 9.44769C5.9498 9.44769 5.90009 9.43774 5.85375 9.41841C5.8074 9.39908 5.76535 9.37076 5.73002 9.33508L2.62502 6.21508C2.23289 5.81426 2.01332 5.27582 2.01332 4.71508C2.01332 4.15435 2.23289 3.61591 2.62502 3.21508C3.02459 2.82058 3.5635 2.59937 4.12502 2.59937C4.68653 2.59937 5.22544 2.82058 5.62502 3.21508C5.6715 3.26195 5.7268 3.29914 5.78773 3.32453C5.84866 3.34991 5.91401 3.36298 5.98002 3.36298C6.04602 3.36298 6.11137 3.34991 6.1723 3.32453C6.23323 3.29914 6.28853 3.26195 6.33502 3.21508C6.73459 2.82058 7.2735 2.59937 7.83502 2.59937C8.39653 2.59937 8.93544 2.82058 9.33502 3.21508C9.73253 3.61066 9.95931 4.14618 9.96679 4.70693C9.97426 5.26767 9.76184 5.80905 9.37502 6.21508V6.23008Z" fill="#EC6C73"/>
</svg>
