<svg width="80" height="80" viewBox="0 0 80 80" fill="none" xmlns="http://www.w3.org/2000/svg">
<path d="M55.7 54.3L12.3666 10.9666C11.739 10.339 10.8877 9.98633 9.99998 9.98633C9.11231 9.98633 8.26099 10.339 7.63331 10.9666C7.00563 11.5943 6.65301 12.4456 6.65301 13.3333C6.65301 14.221 7.00563 15.0723 7.63331 15.7L18.8333 26.8666C17.8486 28.9782 17.1857 31.2254 16.8666 33.5333C13.4479 34.0555 10.3659 35.8856 8.27102 38.6373C6.17617 41.389 5.23243 44.8469 5.63902 48.2813C6.04561 51.7157 7.77071 54.8577 10.4502 57.0442C13.1297 59.2307 16.5538 60.2905 20 60H51.9666L60.9666 69.0333C61.2765 69.3457 61.6452 69.5937 62.0514 69.7629C62.4576 69.9322 62.8933 70.0193 63.3333 70.0193C63.7733 70.0193 64.209 69.9322 64.6152 69.7629C65.0214 69.5937 65.3901 69.3457 65.7 69.0333C66.0124 68.7234 66.2604 68.3548 66.4296 67.9486C66.5988 67.5424 66.686 67.1067 66.686 66.6666C66.686 66.2266 66.5988 65.7909 66.4296 65.3847C66.2604 64.9785 66.0124 64.6098 65.7 64.3L55.7 54.3ZM20 53.3333C18.2319 53.3333 16.5362 52.6309 15.2859 51.3807C14.0357 50.1304 13.3333 48.4347 13.3333 46.6666C13.3333 44.8985 14.0357 43.2028 15.2859 41.9526C16.5362 40.7023 18.2319 40 20 40C20.884 40 21.7319 39.6488 22.357 39.0237C22.9821 38.3985 23.3333 37.5507 23.3333 36.6666C23.3365 35.0985 23.5609 33.5387 24 32.0333L45.3 53.3333H20ZM61.4 27.4C59.5929 23.2241 56.6044 19.6677 52.8022 17.1684C49 14.6692 44.55 13.3361 40 13.3333C37.3639 13.3206 34.7462 13.7719 32.2666 14.6666C31.5065 15.01 30.9028 15.6259 30.5746 16.3927C30.2464 17.1595 30.2176 18.0215 30.4939 18.8085C30.7702 19.5955 31.3314 20.2503 32.0669 20.6437C32.8024 21.0371 33.6587 21.1404 34.4666 20.9333C36.2436 20.306 38.1156 19.9902 40 20C43.4786 20.0025 46.8692 21.0935 49.6966 23.1199C52.524 25.1463 54.6465 28.0066 55.7666 31.3C55.9572 31.8728 56.2997 32.3831 56.7576 32.7764C57.2155 33.1697 57.7717 33.4314 58.3666 33.5333C60.0616 33.8332 61.6505 34.5655 62.9795 35.6594C64.3085 36.7534 65.3327 38.1718 65.9529 39.7775C66.573 41.3832 66.7682 43.1219 66.5195 44.8251C66.2708 46.5284 65.5867 48.1386 64.5333 49.5C63.9883 50.1907 63.7385 51.069 63.8384 51.9432C63.9383 52.8174 64.3798 53.6166 65.0666 54.1666C65.6531 54.6372 66.3814 54.8956 67.1333 54.9C67.634 54.8977 68.1277 54.7826 68.5778 54.5633C69.028 54.344 69.4229 54.0261 69.7333 53.6333C71.4046 51.4974 72.5294 48.9859 73.0101 46.3168C73.4908 43.6477 73.3129 40.9016 72.4918 38.3168C71.6707 35.732 70.2312 33.3866 68.2983 31.4842C66.3654 29.5818 63.9975 28.1798 61.4 27.4Z" fill="#C6C6C6"/>
</svg>
