<svg width="32" height="32" viewBox="0 0 32 32" fill="none" xmlns="http://www.w3.org/2000/svg">
<path d="M29.3333 9.65331C29.3343 9.47784 29.3007 9.30389 29.2344 9.14144C29.168 8.97899 29.0702 8.83123 28.9467 8.70665L23.2933 3.05331C23.1687 2.92974 23.021 2.83197 22.8585 2.76562C22.6961 2.69927 22.5221 2.66563 22.3467 2.66665C22.1712 2.66563 21.9972 2.69927 21.8348 2.76562C21.6723 2.83197 21.5246 2.92974 21.4 3.05331L17.6267 6.82665L3.05333 21.4C2.92975 21.5246 2.83199 21.6723 2.76564 21.8348C2.69928 21.9972 2.66565 22.1712 2.66666 22.3466V28C2.66666 28.3536 2.80714 28.6927 3.05719 28.9428C3.30724 29.1928 3.64637 29.3333 4 29.3333H9.65333C9.8399 29.3435 10.0265 29.3143 10.2011 29.2477C10.3757 29.1811 10.5343 29.0785 10.6667 28.9466L25.16 14.3733L28.9467 10.6666C29.0684 10.5374 29.1675 10.3887 29.24 10.2266C29.2528 10.1204 29.2528 10.0129 29.24 9.90665C29.2462 9.84458 29.2462 9.78205 29.24 9.71998L29.3333 9.65331ZM9.10666 26.6666H5.33333V22.8933L18.5733 9.65331L22.3467 13.4266L9.10666 26.6666ZM24.2267 11.5466L20.4533 7.77331L22.3467 5.89331L26.1067 9.65331L24.2267 11.5466Z" fill="#C6C6C6"/>
</svg>
