<svg width="20" height="20" viewBox="0 0 20 20" fill="none" xmlns="http://www.w3.org/2000/svg">
<path d="M11.9692 3.40949C12.6222 2.97412 12.9488 2.75643 13.3045 2.79166C13.6603 2.82689 13.9378 3.10439 14.4928 3.65938L16.3407 5.50729C16.8957 6.06228 17.1732 6.33978 17.2084 6.69555C17.2436 7.05132 17.026 7.37785 16.5906 8.0309L15.3683 9.86435C15.0459 10.3479 14.8848 10.5896 14.7426 10.8403C14.4177 11.413 14.1648 12.0235 13.9896 12.6582C13.9129 12.936 13.8559 13.2209 13.7419 13.7907L13.5828 14.5865C13.4649 15.1758 12.7821 15.4516 12.288 15.1096V15.1096C9.39752 13.1085 6.8916 10.6026 4.8905 7.71209V7.71209C4.54843 7.21799 4.82428 6.53516 5.41357 6.4173L6.20936 6.25814C6.7792 6.14418 7.06411 6.08719 7.34188 6.0105C7.97653 5.83526 8.58713 5.58234 9.15981 5.25749C9.41045 5.11531 9.65221 4.95413 10.1357 4.63179L11.9692 3.40949Z" stroke="#01CB45" stroke-width="2"/>
<path d="M4.16675 15.8335L7.91675 12.0835" stroke="#01CB45" stroke-width="2" stroke-linecap="round"/>
</svg>
