<svg width="16" height="16" viewBox="0 0 16 16" fill="none" xmlns="http://www.w3.org/2000/svg">
<path d="M3.33337 12.0001H6.16004C6.24778 12.0006 6.33475 11.9838 6.41598 11.9506C6.4972 11.9175 6.57108 11.8686 6.63337 11.8068L11.2467 7.18679L13.14 5.33346C13.2025 5.27148 13.2521 5.19775 13.286 5.11651C13.3198 5.03527 13.3372 4.94813 13.3372 4.86012C13.3372 4.77211 13.3198 4.68498 13.286 4.60374C13.2521 4.5225 13.2025 4.44876 13.14 4.38679L10.3134 1.52679C10.2514 1.4643 10.1777 1.41471 10.0964 1.38086C10.0152 1.34702 9.92805 1.32959 9.84004 1.32959C9.75203 1.32959 9.6649 1.34702 9.58366 1.38086C9.50242 1.41471 9.42868 1.4643 9.36671 1.52679L7.48671 3.41346L2.86004 8.03346C2.79825 8.09575 2.74937 8.16963 2.71619 8.25085C2.68302 8.33208 2.6662 8.41905 2.66671 8.50679V11.3335C2.66671 11.5103 2.73695 11.6798 2.86197 11.8049C2.98699 11.9299 3.15656 12.0001 3.33337 12.0001ZM9.84004 2.94012L11.7267 4.82679L10.78 5.77346L8.89337 3.88679L9.84004 2.94012ZM4.00004 8.78012L7.95337 4.82679L9.84004 6.71346L5.88671 10.6668H4.00004V8.78012ZM14 13.3335H2.00004C1.82323 13.3335 1.65366 13.4037 1.52864 13.5287C1.40361 13.6537 1.33337 13.8233 1.33337 14.0001C1.33337 14.1769 1.40361 14.3465 1.52864 14.4715C1.65366 14.5966 1.82323 14.6668 2.00004 14.6668H14C14.1769 14.6668 14.3464 14.5966 14.4714 14.4715C14.5965 14.3465 14.6667 14.1769 14.6667 14.0001C14.6667 13.8233 14.5965 13.6537 14.4714 13.5287C14.3464 13.4037 14.1769 13.3335 14 13.3335Z" fill="current"/>
</svg>
