<svg width="144" height="144" viewBox="0 0 144 144" fill="none" xmlns="http://www.w3.org/2000/svg">
<path d="M80.46 72.0001L106.26 46.2601C107.39 45.1303 108.025 43.5979 108.025 42.0001C108.025 40.4023 107.39 38.87 106.26 37.7401C105.13 36.6103 103.598 35.9756 102 35.9756C100.402 35.9756 98.8698 36.6103 97.74 37.7401L72 63.5401L46.26 37.7401C45.1302 36.6103 43.5978 35.9756 42 35.9756C40.4022 35.9756 38.8698 36.6103 37.74 37.7401C36.6102 38.87 35.9754 40.4023 35.9754 42.0001C35.9754 43.5979 36.6102 45.1303 37.74 46.2601L63.54 72.0001L37.74 97.7401C37.1776 98.2979 36.7313 98.9615 36.4267 99.6927C36.122 100.424 35.9652 101.208 35.9652 102C35.9652 102.792 36.122 103.576 36.4267 104.308C36.7313 105.039 37.1776 105.702 37.74 106.26C38.2978 106.823 38.9614 107.269 39.6925 107.573C40.4237 107.878 41.2079 108.035 42 108.035C42.7921 108.035 43.5763 107.878 44.3075 107.573C45.0386 107.269 45.7022 106.823 46.26 106.26L72 80.4601L97.74 106.26C98.2978 106.823 98.9614 107.269 99.6925 107.573C100.424 107.878 101.208 108.035 102 108.035C102.792 108.035 103.576 107.878 104.307 107.573C105.039 107.269 105.702 106.823 106.26 106.26C106.822 105.702 107.269 105.039 107.573 104.308C107.878 103.576 108.035 102.792 108.035 102C108.035 101.208 107.878 100.424 107.573 99.6927C107.269 98.9615 106.822 98.2979 106.26 97.7401L80.46 72.0001Z" fill="#EC6C73" fill-opacity="0.1"/>
</svg>
