<svg width="20" height="20" viewBox="0 0 20 20" fill="none" xmlns="http://www.w3.org/2000/svg">
<path d="M12.95 9.40832L8.23334 4.69999C8.15587 4.62188 8.0637 4.55989 7.96215 4.51758C7.8606 4.47527 7.75168 4.45349 7.64167 4.45349C7.53166 4.45349 7.42274 4.47527 7.32119 4.51758C7.21964 4.55989 7.12747 4.62188 7.05001 4.69999C6.8948 4.85613 6.80768 5.06734 6.80768 5.28749C6.80768 5.50764 6.8948 5.71885 7.05001 5.87499L11.175 10.0417L7.05001 14.1667C6.8948 14.3228 6.80768 14.534 6.80768 14.7542C6.80768 14.9743 6.8948 15.1855 7.05001 15.3417C7.12718 15.4204 7.21922 15.483 7.32078 15.526C7.42235 15.5689 7.53142 15.5912 7.64167 15.5917C7.75193 15.5912 7.861 15.5689 7.96256 15.526C8.06412 15.483 8.15616 15.4204 8.23334 15.3417L12.95 10.6333C13.0346 10.5553 13.1021 10.4606 13.1483 10.3552C13.1944 10.2497 13.2183 10.1359 13.2183 10.0208C13.2183 9.90574 13.1944 9.7919 13.1483 9.68648C13.1021 9.58107 13.0346 9.48636 12.95 9.40832Z" fill="current"/>
</svg>
