<svg width="12" height="12" viewBox="0 0 12 12" fill="current" xmlns="http://www.w3.org/2000/svg">
<path d="M9 1H3C2.86739 1 2.74021 1.05268 2.64645 1.14645C2.55268 1.24021 2.5 1.36739 2.5 1.5V10.5C2.49999 10.5956 2.52738 10.6892 2.57893 10.7697C2.63047 10.8502 2.704 10.9142 2.79082 10.9542C2.87764 10.9942 2.97409 11.0084 3.06877 10.9953C3.16344 10.9821 3.25236 10.9421 3.325 10.88L6 8.635L8.645 10.855C8.69172 10.9013 8.74713 10.938 8.80805 10.9629C8.86897 10.9878 8.9342 11.0004 9 11C9.06559 11.0017 9.13066 10.988 9.19 10.96C9.28131 10.9225 9.35947 10.8588 9.41464 10.7769C9.46981 10.6951 9.49951 10.5987 9.5 10.5V1.5C9.5 1.36739 9.44732 1.24021 9.35355 1.14645C9.25979 1.05268 9.13261 1 9 1ZM8.5 9.43L6.32 7.6C6.23016 7.52517 6.11693 7.48419 6 7.48419C5.88307 7.48419 5.76984 7.52517 5.68 7.6L3.5 9.43V2H8.5V9.43Z" fill="#FFCF55"/>
</svg>
