<svg width="12" height="14" viewBox="0 0 12 14" fill="none" xmlns="http://www.w3.org/2000/svg">
<path d="M10 13.3333C9.44444 13.3333 8.97222 13.1389 8.58333 12.75C8.19444 12.3611 8 11.8889 8 11.3333C8 11.2556 8.00556 11.1749 8.01667 11.0913C8.02778 11.0078 8.04445 10.9329 8.06667 10.8667L3.36667 8.13333C3.17778 8.3 2.96667 8.43067 2.73333 8.52533C2.5 8.62 2.25556 8.66711 2 8.66667C1.44444 8.66667 0.972222 8.47222 0.583333 8.08333C0.194444 7.69444 0 7.22222 0 6.66667C0 6.11111 0.194444 5.63889 0.583333 5.25C0.972222 4.86111 1.44444 4.66667 2 4.66667C2.25556 4.66667 2.5 4.714 2.73333 4.80867C2.96667 4.90333 3.17778 5.03378 3.36667 5.2L8.06667 2.46667C8.04445 2.4 8.02778 2.32511 8.01667 2.242C8.00556 2.15889 8 2.07822 8 2C8 1.44444 8.19444 0.972222 8.58333 0.583333C8.97222 0.194444 9.44444 0 10 0C10.5556 0 11.0278 0.194444 11.4167 0.583333C11.8056 0.972222 12 1.44444 12 2C12 2.55556 11.8056 3.02778 11.4167 3.41667C11.0278 3.80556 10.5556 4 10 4C9.74444 4 9.5 3.95289 9.26667 3.85867C9.03333 3.76444 8.82222 3.63378 8.63333 3.46667L3.93333 6.2C3.95556 6.26667 3.97222 6.34178 3.98333 6.42533C3.99444 6.50889 4 6.58933 4 6.66667C4 6.74444 3.99444 6.82511 3.98333 6.90867C3.97222 6.99222 3.95556 7.06711 3.93333 7.13333L8.63333 9.86667C8.82222 9.7 9.03333 9.56956 9.26667 9.47533C9.5 9.38111 9.74444 9.33378 10 9.33333C10.5556 9.33333 11.0278 9.52778 11.4167 9.91667C11.8056 10.3056 12 10.7778 12 11.3333C12 11.8889 11.8056 12.3611 11.4167 12.75C11.0278 13.1389 10.5556 13.3333 10 13.3333ZM10 2.66667C10.1889 2.66667 10.3473 2.60267 10.4753 2.47467C10.6033 2.34667 10.6671 2.18844 10.6667 2C10.6667 1.81111 10.6027 1.65267 10.4747 1.52467C10.3467 1.39667 10.1884 1.33289 10 1.33333C9.81111 1.33333 9.65267 1.39733 9.52467 1.52533C9.39667 1.65333 9.33289 1.81156 9.33333 2C9.33333 2.18889 9.39733 2.34733 9.52533 2.47533C9.65333 2.60333 9.81156 2.66711 10 2.66667ZM2 7.33333C2.18889 7.33333 2.34733 7.26933 2.47533 7.14133C2.60333 7.01333 2.66711 6.85511 2.66667 6.66667C2.66667 6.47778 2.60267 6.31933 2.47467 6.19133C2.34667 6.06333 2.18844 5.99956 2 6C1.81111 6 1.65267 6.064 1.52467 6.192C1.39667 6.32 1.33289 6.47822 1.33333 6.66667C1.33333 6.85556 1.39733 7.014 1.52533 7.142C1.65333 7.27 1.81156 7.33378 2 7.33333ZM10 12C10.1889 12 10.3473 11.936 10.4753 11.808C10.6033 11.68 10.6671 11.5218 10.6667 11.3333C10.6667 11.1444 10.6027 10.986 10.4747 10.858C10.3467 10.73 10.1884 10.6662 10 10.6667C9.81111 10.6667 9.65267 10.7307 9.52467 10.8587C9.39667 10.9867 9.33289 11.1449 9.33333 11.3333C9.33333 11.5222 9.39733 11.6807 9.52533 11.8087C9.65333 11.9367 9.81156 12.0004 10 12Z" fill="#666666"/>
</svg>
